<svg width="128" height="128" viewBox="0 0 128 128" fill="none" xmlns="http://www.w3.org/2000/svg">
<path d="M47.9999 112H79.9999M63.9999 16C58.228 15.9986 52.5631 17.5584 47.6054 20.5141C42.6478 23.4698 38.5818 27.7114 35.8383 32.7896C33.0947 37.8678 31.7758 43.5935 32.0211 49.3602C32.2665 55.1269 34.0669 60.7198 37.2319 65.5467C42.3199 73.2907 44.8585 77.1627 45.1945 77.7387C48.1279 82.8853 47.5892 81.072 47.9572 86.9867C47.9999 87.648 47.9999 88.656 47.9999 90.6667C47.9999 92.0812 48.5618 93.4377 49.562 94.4379C50.5622 95.4381 51.9187 96 53.3332 96H74.6665C76.081 96 77.4376 95.4381 78.4378 94.4379C79.438 93.4377 79.9999 92.0812 79.9999 90.6667C79.9999 88.656 79.9999 87.648 80.0425 86.9867C80.4159 81.0667 79.8665 82.8853 82.8052 77.7387C83.1359 77.1627 85.6852 73.2907 90.7679 65.5413C93.9314 60.7146 95.7307 55.1222 95.9753 49.3563C96.2199 43.5904 94.9007 37.8657 92.1573 32.7883C89.4139 27.711 85.3486 23.4701 80.3917 20.5146C75.4348 17.5592 69.771 15.9992 63.9999 16Z" stroke="black" stroke-width="6" stroke-linecap="round" stroke-linejoin="round"/>
</svg>
